HIERARCHY
ROOT Hips
{
	OFFSET 0.000000 0.000000 0.000000
	CHANNELS 6 Xposition Yposition Zposition Xrotation Yrotation Zrotation
	JOINT LeftUpLeg_virtual
	{
		OFFSET 0.000000 0.000000 0.000000
		CHANNELS 3 Xrotation Yrotation Zrotation
		JOINT LeftUpLeg
		{
			OFFSET 15.427100 -6.655098 0.678600
			CHANNELS 3 Xrotation Yrotation Zrotation
			JOINT LeftLeg
			{
				OFFSET 4.081073 -39.591068 13.024000
				CHANNELS 3 Xrotation Yrotation Zrotation
				JOINT LeftFoot
				{
					OFFSET -4.081074 -37.707932 -15.979700
					CHANNELS 3 Xrotation Yrotation Zrotation
					JOINT LeftToeBase
					{
						OFFSET 5.346399 -15.068900 20.645000
						CHANNELS 3 Xrotation Yrotation Zrotation
						JOINT LeftToe_End
						{
							OFFSET 2.754700 0.931300 11.300900
							CHANNELS 3 Xrotation Yrotation Zrotation
							End Site
							{
								OFFSET 0 0 0
							}
						}
					}
				}
			}
		}
	}
	JOINT RightUpLeg_virtual
	{
		OFFSET 0.000000 0.000000 0.000000
		CHANNELS 3 Xrotation Yrotation Zrotation
		JOINT RightUpLeg
		{
			OFFSET -15.569500 -6.655098 0.678600
			CHANNELS 3 Xrotation Yrotation Zrotation
			JOINT RightLeg
			{
				OFFSET -4.081825 -39.591045 13.023800
				CHANNELS 3 Xrotation Yrotation Zrotation
				JOINT RightFoot
				{
					OFFSET 4.081824 -37.707954 -15.979600
					CHANNELS 3 Xrotation Yrotation Zrotation
					JOINT RightToeBase
					{
						OFFSET -5.346400 -15.068900 20.645000
						CHANNELS 3 Xrotation Yrotation Zrotation
						JOINT RightToe_End
						{
							OFFSET -2.754700 0.931300 11.300900
							CHANNELS 3 Xrotation Yrotation Zrotation
							End Site
							{
								OFFSET 0 0 0
							}
						}
					}
				}
			}
		}
	}
	JOINT Spine_virtual
	{
		OFFSET 0.000000 0.000000 0.000000
		CHANNELS 3 Xrotation Yrotation Zrotation
		JOINT Spine
		{
			OFFSET -0.279200 12.230698 -2.892100
			CHANNELS 3 Xrotation Yrotation Zrotation
			JOINT Spine1
			{
				OFFSET -0.232667 10.192268 -1.242267
				CHANNELS 3 Xrotation Yrotation Zrotation
				JOINT Spine1_split
				{
					OFFSET -0.232667 10.192268 -1.242267
					CHANNELS 3 Xrotation Yrotation Zrotation
					JOINT Spine2
					{
						OFFSET -0.232667 10.192268 -1.242267
						CHANNELS 3 Xrotation Yrotation Zrotation
						JOINT Neck_virtual
						{
							OFFSET 0.000000 0.000000 0.000000
							CHANNELS 3 Xrotation Yrotation Zrotation
							JOINT Neck
							{
								OFFSET -0.418800 17.814194 8.416900
								CHANNELS 3 Xrotation Yrotation Zrotation
								JOINT Head
								{
									OFFSET 0.000000 7.031097 3.806800
									CHANNELS 3 Xrotation Yrotation Zrotation
									JOINT HeadTop_End
									{
										OFFSET 0.000000 24.646606 12.978600
										CHANNELS 3 Xrotation Yrotation Zrotation
										End Site
										{
											OFFSET 0 0 0
										}
									}
								}
							}
						}
						JOINT LeftShoulder_virtual
						{
							OFFSET 0.000000 0.000000 0.000000
							CHANNELS 3 Xrotation Yrotation Zrotation
							JOINT LeftShoulder
							{
								OFFSET 8.476499 7.247704 -3.868750
								CHANNELS 3 Xrotation Yrotation Zrotation
								JOINT LeftShoulder_split
								{
									OFFSET 8.476499 7.247704 -3.868750
									CHANNELS 3 Xrotation Yrotation Zrotation
									JOINT LeftArm
									{
										OFFSET 9.308998 -2.777710 0.208600
										CHANNELS 3 Xrotation Yrotation Zrotation
										JOINT LeftForeArm
										{
											OFFSET 29.972298 0.000000 0.000000
											CHANNELS 3 Xrotation Yrotation Zrotation
											JOINT LeftHand
											{
												OFFSET 26.026505 0.000000 0.000000
												CHANNELS 3 Xrotation Yrotation Zrotation
												End Site
												{
													OFFSET 0 0 0
												}
											}
										}
									}
								}
							}
						}
						JOINT RightShoulder_virtual
						{
							OFFSET 0.000000 0.000000 0.000000
							CHANNELS 3 Xrotation Yrotation Zrotation
							JOINT RightShoulder
							{
								OFFSET -7.570500 7.247704 -3.868750
								CHANNELS 3 Xrotation Yrotation Zrotation
								JOINT RightShoulder_split
								{
									OFFSET -7.570500 7.247704 -3.868750
									CHANNELS 3 Xrotation Yrotation Zrotation
									JOINT RightArm
									{
										OFFSET -9.308998 -2.777710 0.208500
										CHANNELS 3 Xrotation Yrotation Zrotation
										JOINT RightForeArm
										{
											OFFSET -29.972300 0.000000 0.000000
											CHANNELS 3 Xrotation Yrotation Zrotation
											JOINT RightHand
											{
												OFFSET -26.026505 0.000000 0.000000
												CHANNELS 3 Xrotation Yrotation Zrotation
												End Site
												{
													OFFSET 0 0 0
												}
											}
										}
									}
								}
							}
						}
					}
				}
			}
		}
	}
}
MOTION
Frames: 7
Frame Time: 0.03333333
-8.957907 84.418137 89.797157 0.000000 0.000000 0.000000 27.219050 16.573830 -6.858955 -32.590330 -5.185668 -7.466735 33.338785 2.448621 -6.317091 -25.365412 2.443073 8.881460 -2.004808 0.868547 2.865799 0.000000 0.000000 0.000000 27.533174 12.737222 -6.333862 -52.393736 3.638327 -13.870829 50.414378 -2.061352 3.105436 10.389368 1.194012 10.636014 -8.208624 1.786887 -1.243116 0.000000 0.000000 0.000000 27.631366 11.550122 -7.287941 7.485297 0.288617 -3.489901 0.065945 2.337070 -0.379048 0.417990 0.687674 0.087514 0.000000 0.000000 0.000000 -0.114689 2.464881 -0.409984 -13.355389 0.729606 -0.039863 -8.065480 3.106433 -2.455389 0.000000 0.000000 0.000000 -0.596366 2.652656 -0.563865 0.816053 -1.040200 -19.385380 -0.287745 0.805466 -1.963979 16.552735 -6.793842 -45.820997 2.533281 -64.743370 1.015537 0.000000 0.000000 0.000000 -0.193047 2.601141 -0.615687 1.191468 3.601010 18.530894 3.630330 5.238993 -2.078958 11.570900 -12.659746 50.784355 -1.504891 68.263540 1.849264 0.000000 0.000000 0.000000 
-8.302235 83.838524 95.915222 0.000000 0.000000 0.000000 27.334207 16.694862 -7.373728 -28.369476 -7.929698 -6.174168 32.365651 3.650601 -6.760539 -29.245893 1.018906 7.532590 -2.356463 1.223767 2.829925 0.000000 0.000000 0.000000 27.652762 14.701243 -7.404973 -55.699711 5.646646 -16.029091 46.575600 -1.591962 3.229620 8.465856 1.348143 12.712797 -9.984244 0.996799 -0.331913 0.000000 0.000000 0.000000 27.064181 12.328986 -7.680039 7.624270 -0.287955 -3.193717 0.203604 2.327188 -0.294769 0.599325 0.793637 0.367815 0.000000 0.000000 0.000000 -0.022273 2.455307 -0.366769 -13.505480 0.513965 0.021011 -8.481925 2.761767 -2.432609 0.000000 0.000000 0.000000 -0.504842 2.654983 -0.477286 0.782530 -0.893610 -19.126720 -0.221702 0.511843 -1.727532 17.064954 -7.396212 -45.862207 2.690401 -64.735870 1.142558 0.000000 0.000000 0.000000 0.017867 2.570149 -0.647021 1.170297 3.347236 18.153943 3.804287 5.411879 -1.426045 11.948974 -12.509441 50.448327 -1.572740 68.529330 1.866577 0.000000 0.000000 0.000000 
-7.718429 82.574982 101.471619 0.000000 0.000000 0.000000 27.052470 16.930733 -8.101706 -25.368528 -10.842135 -3.847843 33.205678 3.521465 -6.786946 -30.496573 -0.247021 4.490554 -3.869188 1.504799 3.343275 0.000000 0.000000 0.000000 27.762084 16.831794 -8.746078 -58.688387 6.398961 -17.462736 41.800034 -1.750606 3.763481 5.366051 0.689597 13.786926 -8.376313 0.411360 0.307077 0.000000 0.000000 0.000000 26.150470 13.148095 -8.051598 8.008846 -0.896262 -2.942729 0.350415 2.352392 -0.243209 0.883790 1.049470 0.569451 0.000000 0.000000 0.000000 0.022937 2.451922 -0.363272 -13.585724 0.257299 0.205919 -9.046916 2.462568 -2.486556 0.000000 0.000000 0.000000 -0.406907 2.670916 -0.397498 0.753243 -0.743584 -18.643160 -0.013011 0.061883 -1.296663 17.492159 -7.614961 -46.271147 2.766558 -65.145450 1.287805 0.000000 0.000000 0.000000 0.205074 2.552754 -0.678836 1.161897 3.071298 17.645018 3.813445 5.345956 -0.718367 12.761995 -12.118671 50.361351 -1.403102 69.007573 1.659167 0.000000 0.000000 0.000000 
-7.358107 81.201660 106.661270 0.000000 0.000000 0.000000 26.740105 17.652028 -8.990726 -22.664572 -13.364318 -1.349338 34.399022 3.233805 -6.426526 -30.557874 -1.310386 1.663369 -4.860317 1.710575 3.503535 0.000000 0.000000 0.000000 27.694066 19.224867 -10.086826 -61.662012 5.919583 -17.851934 37.180111 -2.756097 4.455027 1.538882 -0.840590 13.283337 -3.755420 0.228907 0.586510 0.000000 0.000000 0.000000 25.180606 14.255402 -8.378037 8.559725 -1.597599 -2.685348 0.509843 2.336730 -0.222245 1.214315 1.396504 0.723430 0.000000 0.000000 0.000000 -0.014444 2.401581 -0.361922 -13.555152 0.049695 0.413819 -9.626300 2.294930 -2.638263 0.000000 0.000000 0.000000 -0.290672 2.633911 -0.318523 0.733860 -0.645873 -17.990863 0.274863 -0.427324 -0.894537 17.800660 -7.461066 -47.102088 2.725254 -65.613072 1.421870 0.000000 0.000000 0.000000 0.334401 2.499008 -0.695715 1.164418 2.801909 17.108888 3.641723 5.060247 0.003220 13.935743 -11.499629 50.553915 -1.078900 69.493213 1.309001 0.000000 0.000000 0.000000 
-7.145663 79.970169 111.680099 0.000000 0.000000 0.000000 26.487627 19.131718 -9.949718 -19.463300 -14.755341 0.727818 34.834839 4.041699 -5.766153 -30.680547 -2.160052 1.016861 -5.385177 1.722109 2.911812 0.000000 0.000000 0.000000 27.329607 21.499308 -11.131822 -64.902308 4.611311 -17.374225 33.868774 -4.088861 5.301568 -1.572589 -2.459221 11.392231 1.991205 0.434723 0.584837 0.000000 0.000000 0.000000 24.273601 15.818643 -8.742611 9.161145 -2.364560 -2.387226 0.648866 2.222916 -0.206697 1.462537 1.670296 0.696690 0.000000 0.000000 0.000000 -0.111751 2.276297 -0.329735 -13.375728 -0.010592 0.531295 -10.115246 2.324580 -2.885800 0.000000 0.000000 0.000000 -0.165270 2.515573 -0.245632 0.744755 -0.637466 -17.237044 0.586326 -0.748722 -0.645074 17.935435 -6.915967 -48.340589 2.481917 -65.738938 1.438275 0.000000 0.000000 0.000000 0.387577 2.384497 -0.672100 1.163485 2.536401 16.698441 3.450810 4.850223 0.463070 15.270285 -10.818687 51.049360 -0.781241 69.870417 0.984763 0.000000 0.000000 0.000000 
-7.091428 79.139168 116.763222 0.000000 0.000000 0.000000 26.436905 20.973778 -10.795056 -15.757655 -15.225728 2.414402 34.253983 5.224317 -4.849455 -30.127264 -2.719026 1.083218 -7.907955 1.455072 2.160768 0.000000 0.000000 0.000000 26.563905 22.900511 -11.605187 -68.152133 2.664088 -16.383225 32.572889 -5.109072 6.129775 -2.478477 -3.411852 9.302822 6.189313 0.842620 0.363788 0.000000 0.000000 0.000000 23.765650 17.596645 -9.244680 9.740497 -3.131500 -2.036812 0.732652 2.003519 -0.179473 1.623702 1.671665 0.605616 0.000000 0.000000 0.000000 -0.215826 2.071691 -0.261415 -13.064761 0.071214 0.508259 -10.434777 2.544505 -3.189453 0.000000 0.000000 0.000000 -0.031885 2.292724 -0.171809 0.786226 -0.749423 -16.497060 0.922141 -0.807031 -0.579099 17.957168 -6.014872 -49.827015 2.069679 -65.327331 1.323342 0.000000 0.000000 0.000000 0.374111 2.194605 -0.585080 1.160496 2.215124 16.498745 3.176253 4.916310 0.607905 16.483337 -10.241329 51.706038 -0.621689 70.221339 0.800540 0.000000 0.000000 0.000000 
-7.188640 78.693909 121.911774 0.000000 0.000000 0.000000 26.323629 22.816636 -11.540204 -11.536876 -14.542718 3.655790 32.982683 7.203295 -4.070375 -28.346033 -3.516791 2.725975 -14.815331 0.799447 1.554398 0.000000 0.000000 0.000000 25.389365 23.674069 -11.747428 -70.803073 0.406561 -15.172364 33.477325 -5.270257 6.851029 -0.485806 -3.455380 7.955823 7.710129 1.212988 0.151131 0.000000 0.000000 0.000000 23.435212 19.360199 -9.831101 10.189630 -3.731968 -1.582098 0.754819 1.702102 -0.132255 1.595287 1.375259 0.545436 0.000000 0.000000 0.000000 -0.294191 1.824211 -0.160855 -12.666561 0.304235 0.382625 -10.601493 2.992738 -3.499455 0.000000 0.000000 0.000000 0.045233 2.009476 -0.109310 0.832709 -0.955078 -15.863572 1.122201 -0.613012 -0.744984 17.975881 -4.787839 -51.353375 1.552907 -64.438033 1.091424 0.000000 0.000000 0.000000 0.314387 1.949146 -0.453275 1.185976 1.812292 16.533636 2.771809 5.249711 0.326368 17.385734 -9.925644 52.369096 -0.690947 70.480340 0.860525 0.000000 0.000000 0.000000 
